REM DIRINDEX 1\2\6,1\2\7,1\2\8,1\2\9,1\3\10,1\3\11,1\4\12,1\4\13,1\4\14,1\5\15,1\5\16,1\5\17
REM DIRNAME folder01,folder02,folder03,folder04,folder05,folder06,folder07,folder08,folder09,folder10,folder11,folder12,folder13,folder14,folder15,folder16,folder17
TITLE ""
FILE "1400_2_sec06_0501_0516.mp3" MP3
  TRACK 01 AUDIO
    TITLE "0:"
    INDEX 01 00:00:00
  TRACK 02 AUDIO
    TITLE "12:cjc029_2587"
    INDEX 01 00:03:25
  TRACK 03 AUDIO
    TITLE "0:"
    INDEX 01 00:05:14
  TRACK 04 AUDIO
    TITLE "12:cjc029_2588"
    INDEX 01 00:05:65
  TRACK 05 AUDIO
    TITLE "0:"
    INDEX 01 00:07:13
  TRACK 06 AUDIO
    TITLE "13:cjc029_2589"
    INDEX 01 00:08:13
  TRACK 07 AUDIO
    TITLE "0:"
    INDEX 01 00:09:32
  TRACK 08 AUDIO
    TITLE "14:cjc029_2590"
    INDEX 01 00:09:40
  TRACK 09 AUDIO
    TITLE "0:"
    INDEX 01 00:10:66
  TRACK 10 AUDIO
    TITLE "13:cjc029_2591"
    INDEX 01 00:11:48
  TRACK 11 AUDIO
    TITLE "0:"
    INDEX 01 00:12:61
  TRACK 12 AUDIO
    TITLE "14:cjc029_2592"
    INDEX 01 00:12:67
  TRACK 13 AUDIO
    TITLE "0:"
    INDEX 01 00:14:47
  TRACK 14 AUDIO
    TITLE "13:cjc029_2593"
    INDEX 01 00:15:32
  TRACK 15 AUDIO
    TITLE "0:"
    INDEX 01 00:16:38
  TRACK 16 AUDIO
    TITLE "14:cjc029_2594"
    INDEX 01 00:16:42
  TRACK 17 AUDIO
    TITLE "0:"
    INDEX 01 00:20:06
  TRACK 18 AUDIO
    TITLE "13:cjc029_2595"
    INDEX 01 00:20:63
  TRACK 19 AUDIO
    TITLE "0:"
    INDEX 01 00:22:21
  TRACK 20 AUDIO
    TITLE "14:cjc029_2596"
    INDEX 01 00:22:27
  TRACK 21 AUDIO
    TITLE "0:"
    INDEX 01 00:26:44
  TRACK 22 AUDIO
    TITLE "13:cjc029_2597"
    INDEX 01 00:27:22
  TRACK 23 AUDIO
    TITLE "0:"
    INDEX 01 00:28:45
  TRACK 24 AUDIO
    TITLE "14:cjc029_2598"
    INDEX 01 00:28:51
  TRACK 25 AUDIO
    TITLE "0:"
    INDEX 01 00:29:74
  TRACK 26 AUDIO
    TITLE "13:cjc029_2599"
    INDEX 01 00:30:55
  TRACK 27 AUDIO
    TITLE "0:"
    INDEX 01 00:31:63
  TRACK 28 AUDIO
    TITLE "14:cjc029_2600"
    INDEX 01 00:31:69
  TRACK 29 AUDIO
    TITLE "0:"
    INDEX 01 00:37:52
  TRACK 30 AUDIO
    TITLE "13:cjc029_2601"
    INDEX 01 00:38:35
  TRACK 31 AUDIO
    TITLE "0:"
    INDEX 01 00:39:64
  TRACK 32 AUDIO
    TITLE "14:cjc029_2602"
    INDEX 01 00:39:68
  TRACK 33 AUDIO
    TITLE "0:"
    INDEX 01 00:42:23
  TRACK 34 AUDIO
    TITLE "13:cjc029_2603"
    INDEX 01 00:43:03
  TRACK 35 AUDIO
    TITLE "0:"
    INDEX 01 00:44:18
  TRACK 36 AUDIO
    TITLE "14:cjc029_2604"
    INDEX 01 00:44:28
  TRACK 37 AUDIO
    TITLE "0:"
    INDEX 01 00:50:44
  TRACK 38 AUDIO
    TITLE "13:cjc029_2605"
    INDEX 01 00:51:26
  TRACK 39 AUDIO
    TITLE "0:"
    INDEX 01 00:52:57
  TRACK 40 AUDIO
    TITLE "14:cjc029_2606"
    INDEX 01 00:52:63
  TRACK 41 AUDIO
    TITLE "0:"
    INDEX 01 00:56:14
  TRACK 42 AUDIO
    TITLE "13:cjc029_2607"
    INDEX 01 00:56:72
  TRACK 43 AUDIO
    TITLE "0:"
    INDEX 01 00:58:22
  TRACK 44 AUDIO
    TITLE "14:cjc029_2608"
    INDEX 01 00:58:30
  TRACK 45 AUDIO
    TITLE "0:"
    INDEX 01 01:01:03
  TRACK 46 AUDIO
    TITLE "13:cjc029_2609"
    INDEX 01 01:01:60
  TRACK 47 AUDIO
    TITLE "0:"
    INDEX 01 01:03:08
  TRACK 48 AUDIO
    TITLE "14:cjc029_2610"
    INDEX 01 01:03:14
  TRACK 49 AUDIO
    TITLE "0:"
    INDEX 01 01:07:55
  TRACK 50 AUDIO
    TITLE "13:cjc029_2611"
    INDEX 01 01:08:36
  TRACK 51 AUDIO
    TITLE "0:"
    INDEX 01 01:09:67
  TRACK 52 AUDIO
    TITLE "14:cjc029_2612"
    INDEX 01 01:09:73
  TRACK 53 AUDIO
    TITLE "0:"
    INDEX 01 01:11:35
  TRACK 54 AUDIO
    TITLE "13:cjc029_2613"
    INDEX 01 01:12:19
  TRACK 55 AUDIO
    TITLE "0:"
    INDEX 01 01:13:34
  TRACK 56 AUDIO
    TITLE "14:cjc029_2614"
    INDEX 01 01:13:42
  TRACK 57 AUDIO
    TITLE "0:"
    INDEX 01 01:14:65
  TRACK 58 AUDIO
    TITLE "13:cjc029_2615"
    INDEX 01 01:15:46
  TRACK 59 AUDIO
    TITLE "0:"
    INDEX 01 01:16:65
  TRACK 60 AUDIO
    TITLE "14:cjc029_2616"
    INDEX 01 01:16:73
  TRACK 61 AUDIO
    TITLE "0:"
    INDEX 01 01:18:02
  TRACK 62 AUDIO
    TITLE "13:cjc029_2617"
    INDEX 01 01:18:58
  TRACK 63 AUDIO
    TITLE "0:"
    INDEX 01 01:20:26
  TRACK 64 AUDIO
    TITLE "14:cjc029_2618"
    INDEX 01 01:20:32
  TRACK 65 AUDIO
    TITLE "0:"
    INDEX 01 01:21:59
  TRACK 66 AUDIO
    TITLE "13:cjc029_2619"
    INDEX 01 01:22:41
  TRACK 67 AUDIO
    TITLE "0:"
    INDEX 01 01:23:65
  TRACK 68 AUDIO
    TITLE "14:cjc029_2620"
    INDEX 01 01:23:69
  TRACK 69 AUDIO
    TITLE "0:"
    INDEX 01 01:26:62
